<?xml version="1.0" standalone="no"?>
<!DOCTYPE svg PUBLIC "-//W3C//DTD SVG 20010904//EN"
 "http://www.w3.org/TR/2001/REC-SVG-20010904/DTD/svg10.dtd">
<svg version="1.0" xmlns="http://www.w3.org/2000/svg"
 width="256.000000pt" height="256.000000pt" viewBox="0 0 256.000000 256.000000"
 preserveAspectRatio="xMidYMid meet">
<metadata>
Created by potrace 1.10, written by Peter Selinger 2001-2011
</metadata>
<g transform="translate(0.000000,256.000000) scale(0.100000,-0.100000)"
fill="#000000" stroke="none">
<path d="M1240 1836 l0 -205 40 17 40 17 0 188 0 187 -40 0 -40 0 0 -204z"/>
<path d="M1085 1993 c-16 -9 -31 -17 -33 -18 -2 -2 22 -94 53 -205 30 -112 54
-204 52 -206 -2 -2 -50 71 -106 162 l-103 166 -29 -28 c-16 -15 -29 -32 -29
-37 0 -11 83 -146 163 -265 27 -41 47 -75 45 -77 -2 -2 -66 46 -143 106 -77
60 -142 109 -145 109 -3 0 -13 -19 -23 -43 l-18 -42 30 -25 c16 -14 81 -63
144 -110 64 -47 116 -88 116 -91 1 -3 -71 12 -160 33 -88 22 -163 37 -166 34
-4 -3 -9 -26 -13 -51 -8 -52 -26 -44 187 -91 73 -16 133 -31 133 -34 0 -3 -69
-20 -153 -39 -83 -19 -157 -36 -163 -38 -11 -4 -3 -87 9 -99 3 -4 74 10 157
31 83 20 153 35 156 33 2 -3 -59 -53 -136 -112 -78 -59 -140 -111 -138 -114 2
-4 10 -24 18 -44 8 -21 16 -38 20 -38 3 0 64 46 135 101 86 67 129 107 127
118 -2 9 -6 63 -9 121 -8 161 28 273 120 375 l44 50 -49 185 c-28 102 -53 188
-56 192 -4 3 -20 -1 -37 -9z m-111 -224 c-3 -5 0 -9 5 -9 6 0 11 -5 11 -12 0
-6 6 -19 13 -28 6 -9 0 -3 -15 13 -29 32 -47 77 -22 56 7 -6 11 -15 8 -20z
m-91 -168 c23 -16 54 -40 69 -53 15 -13 45 -36 68 -51 40 -28 51 -47 28 -47
-7 0 -58 36 -113 80 -55 44 -103 80 -107 80 -5 0 -8 5 -8 10 0 17 20 11 63
-19z m24 -218 c62 -16 111 -32 109 -38 -4 -13 -42 -9 -153 17 -59 14 -93 27
-93 35 0 18 9 17 137 -14z m103 -167 c0 -15 -3 -17 -80 -34 -161 -38 -172 -39
-164 -19 3 8 50 24 107 37 56 12 107 24 112 25 20 6 25 5 25 -9z m20 -135 c0
-14 -187 -154 -201 -149 -11 4 42 51 136 120 52 39 65 44 65 29z"/>
<path d="M1401 1878 c-19 -73 -40 -149 -47 -169 l-12 -36 44 1 c30 1 46 6 48
16 34 119 77 283 74 285 -5 4 -67 35 -70 35 -2 0 -18 -60 -37 -132z"/>
<path d="M1555 1798 c-32 -51 -65 -101 -73 -111 -9 -9 -13 -18 -11 -20 28 -16
80 -39 82 -36 20 25 117 189 117 196 0 5 -13 22 -29 37 l-28 27 -58 -93z"/>
<path d="M1673 1644 l-72 -56 26 -39 c14 -21 27 -39 30 -39 9 0 134 103 131
109 -2 3 -10 23 -18 44 -8 20 -16 37 -20 37 -3 0 -37 -25 -77 -56z m37 -44
c-35 -31 -50 -37 -50 -21 0 13 52 50 70 50 9 0 1 -12 -20 -29z"/>
<path d="M1785 1455 c-5 -2 -29 -9 -51 -14 l-41 -11 15 -48 c8 -26 16 -48 17
-49 0 -1 17 1 36 6 19 5 46 12 60 15 27 6 28 11 13 84 -4 20 -22 27 -49 17z"/>
<path d="M1730 1198 c0 -18 -3 -43 -6 -54 -5 -19 0 -23 46 -34 28 -7 54 -10
57 -6 3 3 9 26 13 51 7 43 6 46 -19 51 -14 3 -39 10 -55 15 -16 5 -31 9 -32 9
-2 0 -4 -15 -4 -32z"/>
<path d="M987 896 c-54 -84 -97 -158 -97 -163 0 -5 13 -22 29 -37 l28 -27 40
63 c22 35 62 99 90 143 l50 80 -22 47 -22 48 -96 -154z"/>
<path d="M1673 983 c-9 -21 -19 -41 -20 -44 -4 -7 96 -84 100 -78 2 2 11 22
21 44 l18 39 -44 38 c-23 21 -46 38 -50 38 -4 0 -15 -17 -25 -37z"/>
<path d="M1130 887 c-6 -23 -27 -100 -46 -170 -20 -71 -34 -130 -32 -132 9 -8
70 -36 72 -33 2 2 10 32 19 68 9 36 27 104 40 151 l24 85 -33 37 -33 36 -11
-42z"/>
<path d="M1558 840 l-36 -27 45 -72 45 -72 29 27 c16 15 29 32 29 36 0 5 -17
37 -38 72 l-37 62 -37 -26z"/>
<path d="M1240 674 l0 -154 40 0 40 0 0 134 0 134 -40 20 -40 19 0 -153z"/>
<path d="M1409 783 l-35 -4 30 -112 c16 -62 31 -113 32 -115 2 -3 63 25 72 33
5 5 -51 205 -57 203 -3 -1 -22 -3 -42 -5z"/>
</g>
</svg>
